<svg width="16" height="16" viewBox="0 0 16 16" fill="none" xmlns="http://www.w3.org/2000/svg">
<path d="M15.6686 7.48064L0.811792 0.623664C0.575226 0.516238 0.292947 0.580237 0.12838 0.78366C0.0478527 0.882195 0.00273109 1.00491 0.000244505 1.13214C-0.00224208 1.25937 0.0380503 1.38375 0.114666 1.48536L5.00026 7.99948L0.114666 14.5136C-0.0430445 14.7227 -0.0373304 15.013 0.127237 15.2153C0.238091 15.3536 0.403802 15.4279 0.571797 15.4279C0.652938 15.4279 0.734079 15.4107 0.810649 15.3753L15.6674 8.51833C15.8709 8.42462 16 8.22233 16 7.99948C16 7.77663 15.8708 7.57435 15.6686 7.48064Z" fill="url(#paint0_linear_5270_125)"/>
<defs>
<linearGradient id="paint0_linear_5270_125" x1="7.99999" y1="0.572144" x2="7.99999" y2="15.4279" gradientUnits="userSpaceOnUse">
<stop offset="0.672847" stop-color="#0180A2"/>
<stop offset="1" stop-color="#01B8E9"/>
</linearGradient>
</defs>
</svg>
