<svg width="68" height="56" viewBox="0 0 68 56" fill="none" xmlns="http://www.w3.org/2000/svg">
<path fill-rule="evenodd" clip-rule="evenodd" d="M34.8754 0.0149979C29.2804 -0.171974 23.7675 1.39315 19.1125 4.49005C13.8787 7.97469 10.0456 13.1849 8.28704 19.2051C7.81082 19.1472 7.24057 19.1728 6.56344 19.3635C4.03532 20.0787 2.13475 22.1408 1.27979 23.9577C0.17005 26.3255 -0.297613 29.4579 0.195699 32.6899C0.685591 35.9125 2.05267 38.5689 3.76259 40.2181C5.47764 41.8682 7.41412 42.4045 9.33778 42.0018C12.2019 41.3931 13.622 40.9376 13.221 38.2811L11.2802 25.3992C11.4773 21.8931 12.4903 18.4807 14.2391 15.4315C15.9879 12.3823 18.4246 9.77969 21.3568 7.82931C25.3085 5.1966 29.9896 3.86407 34.7415 4.01924C39.4934 4.17442 44.0769 5.80948 47.8469 8.69435C50.4497 10.6817 52.5901 13.2063 54.1212 16.0948C55.6523 18.9834 56.5378 22.1676 56.7171 25.429L55.3594 34.4395C53.8863 38.4609 51.2986 41.984 47.8963 44.6001C44.4941 47.2163 40.4168 48.8182 36.1373 49.2201H30.3527C29.9987 49.2194 29.6481 49.2882 29.3209 49.4227C28.9937 49.5572 28.6964 49.7546 28.446 50.0038C28.1956 50.253 27.9971 50.549 27.8619 50.8747C27.7266 51.2005 27.6573 51.5496 27.6579 51.9021V53.3172C27.6572 53.6697 27.7264 54.019 27.8616 54.3448C27.9968 54.6707 28.1953 54.9667 28.4457 55.216C28.6961 55.4653 28.9934 55.6628 29.3207 55.7974C29.6479 55.9319 29.9986 56.0008 30.3527 56H37.6463C38 56.0005 38.3502 55.9315 38.677 55.7969C39.0037 55.6623 39.3006 55.4647 39.5504 55.2155C39.8003 54.9662 39.9982 54.6703 40.1329 54.3447C40.2676 54.0191 40.3363 53.6702 40.3352 53.318V52.5773C46.8882 50.9794 52.5972 46.9835 56.3264 41.3845L58.663 42.0018C60.5644 42.4931 62.524 41.8673 64.2382 40.2181C65.9481 38.5681 67.3143 35.9125 67.805 32.6899C68.3009 29.457 67.8187 26.3306 66.7227 23.9577C65.6223 21.5848 63.9834 20.0778 62.0914 19.5372C61.2988 19.3098 60.4387 19.2264 59.7009 19.2051C58.1128 13.7604 54.821 8.96251 50.3049 5.51005C45.8655 2.11618 40.4691 0.194304 34.8754 0.0149979Z" fill="#007FA1"/>
<path fill-rule="evenodd" clip-rule="evenodd" d="M43.413 23.1897C44.3395 23.1908 45.2277 23.5579 45.8828 24.2104C46.5379 24.8629 46.9063 25.7476 46.9072 26.6703C46.9056 27.5929 46.5369 28.4773 45.8818 29.1297C45.2267 29.7821 44.3386 30.1493 43.4121 30.1509C42.4846 30.1511 41.595 29.7846 40.9387 29.132C40.2823 28.4793 39.913 27.5939 39.9119 26.6703C39.9121 26.2128 40.0029 25.7598 40.1789 25.3372C40.3549 24.9147 40.6128 24.5308 40.9379 24.2075C41.2629 23.8842 41.6487 23.6278 42.0732 23.453C42.4978 23.2783 42.9527 23.1885 43.4121 23.1888L43.413 23.1897ZM33.9999 23.1897C34.691 23.19 35.3666 23.3944 35.9411 23.777C36.5156 24.1596 36.9633 24.7033 37.2276 25.3393C37.4919 25.9752 37.5609 26.675 37.4259 27.35C37.2909 28.025 36.958 28.6451 36.4692 29.1317C35.9805 29.6183 35.3578 29.9497 34.6799 30.084C34.002 30.2183 33.2994 30.1493 32.6608 29.886C32.0223 29.6226 31.4765 29.1766 31.0924 28.6044C30.7083 28.0322 30.5033 27.3594 30.5031 26.6711C30.5026 26.2137 30.5928 25.7607 30.7683 25.338C30.9439 24.9153 31.2015 24.5312 31.5263 24.2077C31.8511 23.8843 32.2367 23.6278 32.6612 23.453C33.0856 23.2781 33.5405 23.1892 33.9999 23.1897ZM24.5893 23.1897C25.0548 23.1794 25.5177 23.2619 25.9507 23.4322C26.3838 23.6025 26.7783 23.8572 27.1111 24.1814C27.444 24.5056 27.7085 24.8928 27.889 25.3202C28.0696 25.7476 28.1626 26.2066 28.1626 26.6703C28.1626 27.1339 28.0696 27.5929 27.889 28.0203C27.7085 28.4477 27.444 28.8349 27.1111 29.1591C26.7783 29.4833 26.3838 29.738 25.9507 29.9083C25.5177 30.0787 25.0548 30.1611 24.5893 30.1509C23.6717 30.1366 22.7966 29.7635 22.1527 29.1123C21.5089 28.461 21.1481 27.5837 21.1481 26.6698C21.1481 25.7559 21.5089 24.8787 22.1527 24.2274C22.7966 23.5761 23.6717 23.2039 24.5893 23.1897ZM33.9999 8.23535C23.7489 8.23535 15.4883 16.191 15.4883 26.6694C15.4883 31.7021 17.3991 36.1499 20.512 39.4134L19.4074 44.3448C19.0432 45.9676 20.1735 47.0592 21.6389 46.2469L26.4737 43.5607C28.8492 44.585 31.4112 45.1107 33.9999 45.1052C44.2543 45.1052 52.5097 37.1546 52.5097 26.672C52.5097 16.1927 44.2543 8.23706 33.9999 8.23706V8.23535Z" fill="#007FA1"/>
</svg>
