<svg width="56" height="56" viewBox="0 0 56 56" fill="none" xmlns="http://www.w3.org/2000/svg">
<g clip-path="url(#clip0_5270_167)">
<path d="M1.564 32.0472L5.21837 32.6462C5.79573 35.4444 6.90064 38.1072 8.47405 40.4921L6.30997 43.5125C6.09136 43.8101 5.97506 44.1705 5.97848 44.5398C5.98191 44.9091 6.10488 45.2673 6.32898 45.5608C6.87467 46.2278 7.45445 46.8662 8.066 47.4734C8.68295 48.0913 9.31891 48.6608 9.97389 49.2113C10.2676 49.4359 10.6262 49.5591 10.9959 49.5625C11.3655 49.566 11.7264 49.4494 12.0242 49.2303L15.0426 47.0652C17.4252 48.6396 20.0861 49.7452 22.8828 50.3228L23.4808 53.9801C23.5363 54.3442 23.709 54.6802 23.9728 54.9372C24.2366 55.1942 24.5771 55.358 24.9425 55.4038C25.4627 55.4627 25.9867 55.4987 26.522 55.5254C26.6507 55.5317 26.7793 55.5119 26.9001 55.4672C27.0209 55.4225 27.1315 55.3539 27.2251 55.2654C27.3187 55.1769 27.3935 55.0704 27.4449 54.9523C27.4963 54.8342 27.5233 54.7069 27.5243 54.5781V46.9713C27.523 46.7246 27.4262 46.4879 27.2542 46.311C27.0822 46.134 26.8484 46.0305 26.6018 46.0221C17.0098 45.5249 9.48748 37.6025 9.48748 27.9977C9.48748 18.3928 17.0098 10.4705 26.6018 9.97322C26.8484 9.96486 27.0822 9.86136 27.2542 9.6844C27.4262 9.50744 27.523 9.27077 27.5243 9.024V1.42388C27.5237 1.29512 27.497 1.16782 27.4459 1.04964C27.3948 0.931454 27.3203 0.824824 27.2269 0.736158C27.1336 0.647492 27.0232 0.57862 26.9026 0.533684C26.7819 0.488747 26.6534 0.468673 26.5248 0.474669C25.9964 0.496485 25.4687 0.533828 24.9425 0.586649C24.5767 0.636484 24.2369 0.803105 23.9735 1.0617C23.7101 1.3203 23.5373 1.65705 23.4807 2.02181L22.8827 5.67903C20.0861 6.25746 17.4252 7.36335 15.0425 8.93756L12.0241 6.77154C11.7263 6.55245 11.3655 6.43587 10.9958 6.4393C10.6261 6.44272 10.2675 6.56598 9.97379 6.79056C9.30863 7.33697 8.67183 7.91704 8.06591 8.5285C7.44979 9.1313 6.86977 9.76993 6.32889 10.4411C6.10388 10.7349 5.98036 11.0939 5.97693 11.464C5.97351 11.834 6.09034 12.1952 6.30987 12.4932L8.47396 15.5135C6.90089 17.8976 5.796 20.5593 5.21828 23.3566L1.56391 23.9546C1.19972 24.0103 0.863635 24.1832 0.606672 24.4472C0.349708 24.7112 0.185906 25.0518 0.140136 25.4174C-0.0467119 27.1208 -0.0467119 28.8395 0.140136 30.5429C0.181221 30.9145 0.342532 31.2625 0.599542 31.5341C0.856552 31.8056 1.1952 31.9858 1.564 32.0472Z" fill="#007FA1"/>
<path d="M26.615 13.7916C19.1162 14.2666 13.2773 20.4871 13.2773 28.0009C13.2773 35.5146 19.1163 41.7351 26.615 42.2101C26.7331 42.215 26.8509 42.1959 26.9614 42.1538C27.0718 42.1118 27.1725 42.0477 27.2574 41.9655C27.3423 41.8832 27.4096 41.7846 27.4551 41.6756C27.5007 41.5665 27.5236 41.4493 27.5224 41.3312V14.6706C27.5236 14.5524 27.5007 14.4352 27.4551 14.3261C27.4096 14.2171 27.3423 14.1185 27.2574 14.0362C27.1725 13.954 27.0718 13.8899 26.9614 13.8479C26.8509 13.8058 26.7331 13.7867 26.615 13.7916ZM34.1667 14.7123H29.4208V16.6107H34.1667C35.7375 16.606 37.0096 15.3339 37.0143 13.7631V7.89342C38.3218 7.43117 39.1061 6.09412 38.8716 4.72721C38.6371 3.3603 37.452 2.36121 36.065 2.36121C34.6782 2.36121 33.493 3.3603 33.2585 4.72721C33.0239 6.09412 33.8083 7.43117 35.1158 7.89342V13.7631C35.1158 14.2874 34.6909 14.7123 34.1667 14.7123ZM29.4207 20.4074H38.9126C39.4368 20.4074 39.8618 19.9825 39.8618 19.4582C39.8618 18.934 39.4368 18.509 38.9126 18.509H29.4207V20.4074ZM29.4207 41.2894H34.1666C34.6909 41.2894 35.1158 41.7143 35.1158 42.2386V48.1083C33.8083 48.5705 33.0239 49.9076 33.2585 51.2745C33.493 52.6414 34.6781 53.6405 36.065 53.6405C37.4519 53.6405 38.6371 52.6414 38.8716 51.2745C39.1061 49.9076 38.3218 48.5705 37.0143 48.1083V42.2386C37.0096 40.6678 35.7375 39.3957 34.1667 39.391H29.4208V41.2894H29.4207ZM43.6585 31.7976H29.4207V33.6959H43.6585C44.1827 33.6959 44.6077 34.1209 44.6077 34.6451V39.5657C43.3001 40.028 42.5158 41.365 42.7503 42.732C42.9848 44.0989 44.1699 45.098 45.5569 45.098C46.9437 45.098 48.1289 44.0989 48.3635 42.732C48.598 41.365 47.8137 40.028 46.5061 39.5657V34.6451C46.5013 33.0744 45.2292 31.8023 43.6585 31.7976ZM53.1503 25.1533C52.5635 25.1557 51.9917 25.3394 51.5132 25.6792C51.0348 26.019 50.673 26.4984 50.4774 27.0516H29.4207V28.95H50.4774C50.9624 30.3116 52.3921 31.0926 53.7999 30.7648C55.2078 30.437 56.1456 29.105 55.9793 27.6691C55.8131 26.2333 54.5958 25.1507 53.1503 25.1533Z" fill="#007FA1"/>
<path d="M39.863 36.5436C39.863 36.0193 39.4381 35.5944 38.9138 35.5944H29.422V37.4927H38.9138C39.4381 37.4928 39.863 37.0678 39.863 36.5436ZM46.5072 21.3567V16.4361C47.8148 15.9739 48.5991 14.6368 48.3646 13.2699C48.1301 11.903 46.945 10.9039 45.558 10.9039C44.1712 10.9039 42.986 11.903 42.7514 13.2699C42.5169 14.6368 43.3012 15.9739 44.6088 16.4361V21.3567C44.6088 21.881 44.1839 22.306 43.6596 22.306H29.4219V24.2043H43.6596C45.2304 24.1995 46.5025 22.9274 46.5072 21.3567Z" fill="#007FA1"/>
</g>
<defs>
<clipPath id="clip0_5270_167">
<rect width="56" height="56" fill="white"/>
</clipPath>
</defs>
</svg>
