<svg width="51" height="57" viewBox="0 0 51 57" fill="none" xmlns="http://www.w3.org/2000/svg">
<path fill-rule="evenodd" clip-rule="evenodd" d="M44.8 6.26699V22.339L36.7024 30.6046L31.9592 25.7886L20.1432 37.795L30.7384 48.561C31.5175 49.3546 32.4469 49.985 33.4723 50.4153C34.4978 50.8456 35.5987 51.0673 36.7108 51.0673C37.8229 51.0673 38.9238 50.8456 39.9493 50.4153C40.9747 49.985 41.9041 49.3546 42.6832 48.561L44.8 46.4022V51.067C44.8 52.5522 44.21 53.9766 43.1598 55.0268C42.1096 56.077 40.6852 56.667 39.2 56.667H5.6C4.11479 56.667 2.6904 56.077 1.6402 55.0268C0.589998 53.9766 0 52.5522 0 51.067V6.26699C0 4.78178 0.589998 3.3574 1.6402 2.30719C2.6904 1.25699 4.11479 0.666992 5.6 0.666992H39.2C40.6852 0.666992 42.1096 1.25699 43.1598 2.30719C44.21 3.3574 44.8 4.78178 44.8 6.26699ZM33.6 17.467H11.2V11.867H33.6V17.467ZM11.2 28.667H22.4V23.067H11.2V28.667Z" fill="#007FA1"/>
<path d="M46.4408 28.667L36.7108 38.5986L31.9592 33.7714L28 37.795L34.7312 44.6326C34.9891 44.8962 35.297 45.1057 35.637 45.2487C35.9769 45.3917 36.342 45.4654 36.7108 45.4654C37.0796 45.4654 37.4447 45.3917 37.7846 45.2487C38.1246 45.1057 38.4325 44.8962 38.6904 44.6326L50.4 32.6906L46.4408 28.667Z" fill="#007FA1"/>
</svg>
