<svg width="87" height="87" viewBox="0 0 87 87" fill="none" xmlns="http://www.w3.org/2000/svg">
<path d="M83.7934 38.166L83.7944 38.167C86.7431 41.0991 86.7446 45.9005 83.7934 48.8517L83.7913 48.8538C82.3757 50.286 80.4782 51.0691 78.4594 51.0691C70.3734 51.0691 62.394 49.7627 54.7323 47.1676L54.7314 47.1673L51.1412 45.9587L51.1398 45.9583C50.766 45.8337 50.4275 46.0347 50.2998 46.3241C50.1724 46.613 50.2515 47.0013 50.6001 47.1915L50.6088 47.1962L50.6178 47.2007L54.0303 48.8891L54.0306 48.8893C61.2864 52.4731 67.8535 57.1866 73.5736 62.9067C75.0263 64.3593 75.8244 66.2914 75.7911 68.3391C75.7245 72.4728 72.2705 75.842 68.1391 75.792L68.1373 75.792C66.1738 75.7754 64.3256 74.9945 62.9058 73.5746C57.1856 67.8544 52.4722 61.2873 48.8884 54.0315L48.8882 54.0312L47.2023 50.6239C47.1223 50.4545 46.9801 50.3286 46.8042 50.2732C46.6362 50.2203 46.4689 50.2411 46.3347 50.2986C46.0608 50.416 45.8256 50.7455 45.9573 51.1407L45.9578 51.1421L47.1664 54.7324L47.1667 54.7332C49.7618 62.3949 51.0682 70.3743 51.0682 78.4603C51.0682 80.4774 50.2862 82.3589 48.8508 83.7943L48.8487 83.7964C47.4332 85.2286 45.5356 86.0117 43.5168 86.0117C41.4998 86.0117 39.6183 85.2297 38.1829 83.7943L38.1808 83.7922C36.7486 82.3767 35.9655 80.4791 35.9655 78.4603C35.9655 70.3743 37.2719 62.3949 39.867 54.7332L39.8673 54.7324L41.0759 51.1421L41.0763 51.1407C41.2009 50.767 40.9999 50.4284 40.7105 50.3008C40.4216 50.1733 40.0333 50.2524 39.8431 50.601L39.8384 50.6097L39.8339 50.6187L38.1455 54.0312L38.1453 54.0315C34.5615 61.2873 29.8481 67.8544 24.1279 73.5746C22.6753 75.0272 20.7433 75.8253 18.6955 75.792C14.5618 75.7254 11.1926 72.2714 11.2426 68.14L11.2426 68.1382C11.2592 66.1747 12.0401 64.3266 13.46 62.9067C19.1802 57.1866 25.7473 52.4731 33.0031 48.8893L33.0034 48.8891L36.4108 47.2032C36.5801 47.1231 36.706 46.981 36.7614 46.8051C36.8143 46.6371 36.7935 46.4698 36.736 46.3356C36.6186 46.0617 36.2892 45.8265 35.8939 45.9583L35.8925 45.9587L32.3022 47.1673L32.3014 47.1676C24.6397 49.7627 16.6603 51.0691 8.57427 51.0691C6.55721 51.0691 4.67572 50.2871 3.24032 48.8517C0.289685 45.9011 0.289685 41.1167 3.24033 38.166L3.24238 38.164C4.65794 36.7318 6.55551 35.9486 8.57427 35.9486C16.6603 35.9486 24.6397 37.255 32.3014 39.8501L32.3022 39.8504L35.8925 41.059L35.8939 41.0595C36.2677 41.1841 36.6062 40.983 36.7338 40.6936C36.8613 40.4047 36.7822 40.0164 36.4336 39.8263L36.4249 39.8215L36.4159 39.8171L33.0034 38.1286L33.0031 38.1284C25.7473 34.5447 19.1802 29.8312 13.46 24.1111C12.0074 22.6584 11.2093 20.7264 11.2426 18.6786L11.2426 18.6765C11.2926 14.5457 14.7443 11.1757 18.8946 11.2257L18.8964 11.2258C20.8599 11.2424 22.708 12.0233 24.1279 13.4432C29.8481 19.1633 34.5615 25.7304 38.1453 32.9863L38.1455 32.9866L39.8314 36.394C39.9115 36.5633 40.0536 36.6892 40.2295 36.7445C40.3975 36.7974 40.5648 36.7766 40.699 36.7191C40.9729 36.6017 41.2081 36.2723 41.0763 35.877L41.0759 35.8756L39.8673 32.2854L39.867 32.2845C37.2719 24.6228 35.9655 16.6434 35.9655 8.55741C35.9655 6.54035 36.7475 4.65886 38.1829 3.22347L38.185 3.22139C39.6005 1.78917 41.4981 1.00604 43.5168 1.00604C45.5339 1.00604 47.4154 1.78807 48.8508 3.22347L48.8529 3.22552C50.2851 4.64109 51.0682 6.53866 51.0682 8.55741C51.0682 16.6434 49.7618 24.6228 47.1667 32.2845L47.1664 32.2854L45.9578 35.8756L45.9573 35.877C45.8328 36.2508 46.0338 36.5893 46.3232 36.717C46.6121 36.8445 47.0004 36.7654 47.1906 36.4168L47.1953 36.408L47.1998 36.3991L48.8882 32.9866L48.8884 32.9863C52.4722 25.7304 57.1856 19.1633 62.9058 13.4432C64.3584 11.9906 66.2904 11.1924 68.3382 11.2257C72.4719 11.2924 75.8411 14.7464 75.7911 18.8777L75.7911 18.8795C75.7744 20.843 74.9935 22.6912 73.5736 24.1111C67.8535 29.8312 61.2864 34.5447 54.0306 38.1284L54.0303 38.1286L50.623 39.8145C50.4536 39.8946 50.3276 40.0367 50.2723 40.2126C50.2194 40.3806 50.2402 40.5479 50.2977 40.6821C50.4151 40.956 50.7445 41.1912 51.1398 41.0595L51.1412 41.059L54.7314 39.8504L54.7323 39.8501C62.394 37.255 70.3734 35.9486 78.4594 35.9486C80.4765 35.9486 82.358 36.7306 83.7934 38.166ZM40.2453 52.0422L40.7302 51.0622L40.5974 50.9964L40.5928 51.0099L40.721 51.0798C40.6889 51.1388 40.6254 51.1999 40.5343 51.228C40.5288 51.2297 40.5233 51.2312 40.5178 51.2326L40.2453 52.0422ZM40.2674 50.87L40.1281 50.8231L40.1277 50.8245L40.267 50.8709L40.2674 50.87ZM39.7822 51.8507L40.1606 51.0859C40.1552 51.0768 40.15 51.0673 40.1453 51.0574C40.1051 50.9727 40.107 50.8865 40.1276 50.8246L39.7822 51.8507ZM35.1839 47.2524L36.21 46.907C36.1401 46.9303 36.0487 46.9285 35.9642 46.8854C35.958 46.8822 35.9519 46.8788 35.946 46.8753L35.1839 47.2524ZM34.9924 46.7893L35.8042 46.516C35.8052 46.5123 35.8063 46.5087 35.8075 46.505C35.8369 46.4116 35.9017 46.3416 35.9725 46.3046C35.9774 46.302 35.9823 46.2996 35.9873 46.2973L35.9798 46.3007L35.9725 46.3044L34.9924 46.7893ZM36.1637 46.7676L36.2101 46.9069L36.2115 46.9065L36.1646 46.7672L36.1637 46.7676ZM34.9924 40.2285L32.4618 39.3765L40.2674 36.1478L40.1281 36.1947L40.1277 36.1933L40.267 36.1468L40.1593 35.9291C40.1558 35.935 40.1524 35.9411 40.1492 35.9474C40.1061 36.0318 40.1043 36.1232 40.1276 36.1931L39.7822 35.1671L38.5936 32.7648C34.9856 25.4599 30.2401 18.8482 24.4815 13.0896C22.9708 11.5789 20.9979 10.7435 18.9006 10.7258C14.475 10.6724 10.7959 14.2627 10.7426 18.6705C10.7071 20.8566 11.5602 22.9183 13.1065 24.4646C18.8651 30.2232 25.4768 34.9687 32.7817 38.5767L35.1839 39.7654L36.21 40.1108C36.1481 40.0902 36.0619 40.0883 35.9772 40.1285C35.9673 40.1332 35.9578 40.1383 35.9487 40.1437L36.1637 40.2501L36.2101 40.1108L36.2115 40.1113L36.1646 40.2506L36.1942 40.2652C36.3897 40.3719 36.2653 40.6562 36.052 40.5851L36.0382 40.5805L35.9725 40.7134L34.9924 40.2285ZM40.6011 36.0323L40.602 36.0351L49.2043 2.86991C47.6758 1.34139 45.6674 0.506042 43.5168 0.506042C41.3663 0.506042 39.3401 1.34139 37.8293 2.86991C36.3008 4.39843 35.4655 6.40682 35.4655 8.55741C35.4655 16.6976 36.7807 24.7312 39.3934 32.4449L40.2453 34.9756L40.7302 35.9556L40.7339 35.963L40.7373 35.9704C40.735 35.9655 40.7326 35.9606 40.73 35.9557C40.693 35.8849 40.623 35.82 40.5296 35.7906C40.5259 35.7895 40.5223 35.7884 40.5186 35.7874L40.5974 36.0213L40.6011 36.0323ZM35.8066 40.5175C35.8049 40.512 35.8034 40.5065 35.802 40.501L36.0247 40.576L35.9548 40.7042C35.8958 40.672 35.8347 40.6085 35.8066 40.5175Z" fill="#F5FDFF" stroke="white"/>
</svg>
