<svg width="40" height="40" viewBox="0 0 40 40" fill="none" xmlns="http://www.w3.org/2000/svg">
<g clip-path="url(#clip0_5270_196)">
<path d="M22.7217 26.5711C22.5723 26.4075 22.3833 26.2852 22.188 26.1832C21.7628 25.9615 21.2977 25.827 20.8359 25.7056V29.2837C21.5854 29.199 22.4459 28.927 22.8394 28.2273C23.0273 27.8931 23.0647 27.4824 22.9881 27.1103C22.9466 26.9087 22.8609 26.7237 22.7217 26.5711Z" fill="url(#paint0_linear_5270_196)"/>
<path d="M22.8349 28.2341L22.8389 28.2272C22.8375 28.2295 22.8362 28.2318 22.8349 28.2341ZM17.3198 20.8511C17.191 21.0392 17.1101 21.253 17.0878 21.4802C17.0655 21.7079 17.078 21.9611 17.1645 22.1755C17.2469 22.3797 17.4194 22.5305 17.5975 22.6519C17.7973 22.7878 18.0171 22.894 18.2409 22.984C18.4287 23.0595 18.6399 23.1318 18.8676 23.2017V19.9639C18.2924 20.0866 17.6639 20.3486 17.3198 20.8511ZM22.8537 28.2008C22.849 28.2091 22.8439 28.2179 22.839 28.2271C22.8448 28.2164 22.8494 28.2085 22.8537 28.2008ZM22.8726 28.1673C22.8738 28.165 22.874 28.1648 22.8726 28.1673V28.1673Z" fill="url(#paint1_linear_5270_196)"/>
<path d="M22.0948 8.70336C25.1377 6.14719 27.1709 0.388519 25.9196 0.136648C24.2571 -0.198144 20.6467 1.26988 18.9017 1.52853C16.4267 1.82736 13.731 -1.15537 12.2179 0.507207C10.9876 1.85899 13.0999 6.77498 16.4046 8.91664C6.54516 13.7624 -7.313 38.0886 16.8633 39.8537C50.3153 42.2961 33.5647 13.4255 22.0948 8.70336ZM24.9677 27.8882C24.8648 28.8365 24.3622 29.6942 23.6109 30.2764C22.8176 30.8912 21.8227 31.1772 20.8341 31.2573V32.3051C20.8341 32.5855 20.7117 32.8567 20.5018 33.0423C20.2133 33.2976 19.7894 33.3605 19.4392 33.1992C19.0935 33.0401 18.8664 32.6856 18.8664 32.3051V31.1599C18.6969 31.1279 18.5287 31.0891 18.3623 31.0437C17.4384 30.7899 16.5814 30.2951 15.9554 29.563C15.6436 29.1981 15.3893 28.784 15.2135 28.337C15.1676 28.2201 15.1266 28.1013 15.0908 27.981C15.0583 27.8721 15.0248 27.7614 15.0132 27.6479C14.994 27.4566 15.0312 27.2639 15.1202 27.0936C15.3027 26.7447 15.687 26.5339 16.0795 26.569C16.4658 26.6032 16.8044 26.8713 16.926 27.2395C16.9634 27.3529 16.9888 27.4691 17.0309 27.5813C17.0725 27.6929 17.1231 27.8009 17.1822 27.9043C17.2996 28.1079 17.445 28.2941 17.6142 28.4572C17.9619 28.7922 18.4047 29.0099 18.8664 29.1394V25.2463C17.9637 25.0126 17.0319 24.7108 16.2864 24.1312C15.9241 23.8494 15.6167 23.4993 15.4154 23.0848C15.203 22.6474 15.115 22.1602 15.1114 21.6762C15.1077 21.1848 15.2011 20.6977 15.4061 20.25C15.5981 19.8308 15.8745 19.4544 16.2135 19.1423C16.9382 18.4753 17.9009 18.1032 18.8665 17.9666V16.8788C18.8665 16.5985 18.9889 16.3272 19.1988 16.1416C19.4874 15.8865 19.9112 15.8234 20.2614 15.9847C20.607 16.1439 20.8342 16.4984 20.8342 16.8788V17.9606C20.9629 17.9768 21.0912 17.9962 21.2188 18.0194C22.167 18.191 23.0944 18.5825 23.7878 19.2661C24.1174 19.5912 24.384 19.9744 24.5742 20.3964C24.627 20.5138 24.6734 20.634 24.7133 20.7563C24.7505 20.8705 24.788 20.9881 24.8058 21.1072C24.834 21.2982 24.8055 21.4932 24.7238 21.668C24.557 22.0246 24.183 22.2516 23.7895 22.2347C23.4028 22.2179 23.0525 21.9661 22.914 21.6047C22.8728 21.4972 22.8522 21.3834 22.8101 21.2762C22.7671 21.1678 22.7132 21.0639 22.6494 20.9663C22.5262 20.7762 22.3667 20.6132 22.1846 20.4789C21.7902 20.1877 21.3119 20.0359 20.8339 19.9511V23.6767C21.402 23.8127 21.9704 23.961 22.5147 24.1756C23.3372 24.5 24.1166 24.9973 24.5656 25.7815C24.4959 25.6594 24.4282 25.5403 24.5679 25.7856C24.7052 26.0265 24.6397 25.9117 24.5708 25.7909C24.928 26.4204 25.0453 27.1731 24.9677 27.8882Z" fill="url(#paint2_linear_5270_196)"/>
<path d="M22.8233 28.2524L22.8086 28.2786C22.812 28.2727 22.8171 28.2637 22.8233 28.2524Z" fill="url(#paint3_linear_5270_196)"/>
</g>
<defs>
<linearGradient id="paint0_linear_5270_196" x1="21.9307" y1="25.7056" x2="21.9307" y2="29.2837" gradientUnits="userSpaceOnUse">
<stop offset="0.672847" stop-color="#0180A2"/>
<stop offset="1" stop-color="#01B8E9"/>
</linearGradient>
<linearGradient id="paint1_linear_5270_196" x1="19.9758" y1="19.9639" x2="19.9758" y2="28.2341" gradientUnits="userSpaceOnUse">
<stop offset="0.672847" stop-color="#0180A2"/>
<stop offset="1" stop-color="#01B8E9"/>
</linearGradient>
<linearGradient id="paint2_linear_5270_196" x1="19.9994" y1="0" x2="19.9994" y2="40.0001" gradientUnits="userSpaceOnUse">
<stop offset="0.672847" stop-color="#0180A2"/>
<stop offset="1" stop-color="#01B8E9"/>
</linearGradient>
<linearGradient id="paint3_linear_5270_196" x1="22.8159" y1="28.2524" x2="22.8159" y2="28.2786" gradientUnits="userSpaceOnUse">
<stop offset="0.672847" stop-color="#0180A2"/>
<stop offset="1" stop-color="#01B8E9"/>
</linearGradient>
<clipPath id="clip0_5270_196">
<rect width="40" height="40" fill="white"/>
</clipPath>
</defs>
</svg>
